<svg width="29" height="29" viewBox="0 0 29 29" fill="none" xmlns="http://www.w3.org/2000/svg">
<path d="M20.659 7.9079C20.7363 7.92212 20.8188 7.90364 20.8828 7.8553L24.3592 5.22967L28.6797 5.76702C28.8358 5.78778 28.9773 5.67576 28.9967 5.51995C29.016 5.36415 28.9057 5.22199 28.7496 5.20266L24.3145 4.65109C24.2406 4.64085 24.1667 4.66161 24.1081 4.70625L20.6403 7.32563L18.3374 6.89148V4.44581L20.6587 4.8828C20.6764 4.88593 20.6937 4.88764 20.7113 4.88764C20.7727 4.88764 20.833 4.86774 20.8828 4.83021L24.3592 2.20457L28.6797 2.74192C28.8358 2.76268 28.9773 2.65066 28.9967 2.49485C29.016 2.33905 28.9057 2.19689 28.7496 2.17756L24.3145 1.62599C24.2406 1.61547 24.1667 1.63679 24.1081 1.68115L20.6403 4.30053L18.3374 3.86695V3.48284C18.3374 2.34616 17.4129 1.42157 16.2763 1.42157C15.6889 1.42157 15.1595 1.66977 14.7837 2.06526V2.06127C14.7837 0.924589 13.8591 0 12.7225 0C11.5859 0 10.6613 0.924589 10.6613 2.06127V2.06526C10.2855 1.66977 9.75613 1.42157 9.16877 1.42157C8.03214 1.42157 7.1076 2.34616 7.1076 3.48284V4.90839C6.73176 4.51291 6.20239 4.26471 5.61503 4.26471C4.4784 4.26471 3.55386 5.18929 3.55386 6.32598V8.38981L0.313699 8.05631C0.155913 8.03926 0.0180271 8.15383 0.00153776 8.30992C-0.0146673 8.46601 0.0990526 8.60589 0.255417 8.62181L3.55414 8.96128V11.4129L0.313983 11.0786C0.156197 11.0609 0.0183115 11.1761 0.00182218 11.3322C-0.0143829 11.4883 0.0993368 11.6281 0.255701 11.6441L3.55443 11.9844V14.4386L0.314267 14.1034C0.156481 14.086 0.0185957 14.2009 0.00210632 14.357C-0.0140987 14.5131 0.0996212 14.653 0.255986 14.6689L3.55471 15.0103V18.3098C3.55471 18.3763 3.57802 18.4412 3.62067 18.4923L10.6622 26.914V28.7157C10.6622 28.8729 10.7893 29 10.9465 29C11.1037 29 11.2308 28.8729 11.2308 28.7157V26.8108C11.2308 26.7443 11.2075 26.6794 11.1648 26.6283L4.12331 18.2066V15.0692L5.58632 15.2207C5.59598 15.2216 5.60593 15.2222 5.61588 15.2222C5.68212 15.2222 5.74694 15.1988 5.7984 15.1559L7.10845 14.0596V17.3574C7.10845 17.5146 7.23554 17.6417 7.39275 17.6417C7.54997 17.6417 7.67705 17.5146 7.67705 17.3574V10.5586L9.24326 9.2456L10.6622 9.57938V16.4052C10.6622 16.5624 10.7893 16.6895 10.9465 16.6895C11.1037 16.6895 11.2308 16.5624 11.2308 16.4052V12.7381L12.6497 13.0713C12.6713 13.0764 12.6929 13.0787 12.7148 13.0787C12.7805 13.0787 12.8453 13.0557 12.8971 13.0128L14.2162 11.9119V15.4525C14.2162 15.6097 14.3433 15.7368 14.5005 15.7368C14.6577 15.7368 14.7848 15.6097 14.7848 15.4525V8.41256L16.3593 7.09676L17.77 7.36287V13.8435C17.77 13.8455 17.7711 13.8472 17.7711 13.8489C17.7711 13.856 17.77 13.8629 17.77 13.8702C17.7765 14.3408 17.9457 14.7982 18.2456 15.159C18.2462 15.1599 18.2465 15.1607 18.247 15.1616L20.4873 17.885C20.5436 17.9533 20.6249 17.9885 20.7071 17.9885C20.7707 17.9885 20.8344 17.9675 20.8876 17.9237C21.0087 17.8239 21.026 17.6448 20.9265 17.5234L18.6863 14.8C18.6863 14.8 18.6854 14.7994 18.6851 14.7991C18.6851 14.7991 18.6851 14.7988 18.6851 14.7985C18.4637 14.5327 18.344 14.2091 18.3389 13.8432C18.3389 13.3971 18.5336 12.9792 18.8742 12.6966C19.1801 12.4399 19.5682 12.3176 19.965 12.3534C20.3616 12.389 20.7199 12.5766 20.9752 12.8823L24.8197 17.551L21.3595 23.8158C21.3362 23.8576 21.324 23.9051 21.324 23.9531V28.7154C21.324 28.8726 21.4511 28.9997 21.6083 28.9997C21.7655 28.9997 21.8926 28.8726 21.8926 28.7154V24.0265L25.4108 17.6567C25.4671 17.555 25.4554 17.4284 25.3812 17.3386L21.4124 12.5195C21.4124 12.5195 21.4118 12.5192 21.4118 12.5189C21.4118 12.5189 21.4118 12.5183 21.4113 12.518C21.059 12.0956 20.5635 11.836 20.0154 11.7871C19.4658 11.7385 18.9316 11.9059 18.5097 12.2599C18.4492 12.3102 18.3923 12.3637 18.3386 12.4197V10.4954L20.6599 10.9324C20.6772 10.9356 20.6948 10.9373 20.7125 10.9373C20.7739 10.9373 20.8341 10.9174 20.8839 10.8798L24.3603 8.2542L28.6808 8.79155C28.8369 8.8123 28.9785 8.70028 28.9978 8.54448C29.0171 8.38868 28.9068 8.24652 28.7507 8.22719L24.3157 7.67562C24.2418 7.66567 24.1678 7.68614 24.1093 7.73077L20.6414 10.3502L18.3386 9.91658V7.46949L20.6599 7.90733L20.659 7.9079ZM12.7228 0.568912C13.5458 0.568912 14.2154 1.23847 14.2154 2.06156V5.12163L12.6412 6.43772L11.2302 6.10422V2.06156C11.2302 1.23847 11.8998 0.568912 12.7228 0.568912ZM4.12274 6.32626C4.12274 5.50318 4.79227 4.83362 5.61531 4.83362C6.43836 4.83362 7.10789 5.50318 7.10789 6.32626V7.2682L5.52491 8.5931L4.12274 8.44867V6.32626ZM5.52519 14.6427L4.12274 14.4977V9.01985L5.58632 9.17054C5.59598 9.17139 5.60536 9.17196 5.61531 9.17196C5.68156 9.17196 5.74638 9.14865 5.79783 9.10572L7.10789 8.0094V13.3181L5.52519 14.6427ZM9.23416 8.65963C9.14717 8.63916 9.05505 8.66105 8.98654 8.71877L7.67677 9.81707V3.48341C7.67677 2.66032 8.34629 1.99076 9.16934 1.99076C9.99239 1.99076 10.6619 2.66032 10.6619 3.48341V8.9954L9.23416 8.65963ZM12.6409 12.4854L11.2302 12.1541V6.68848L12.6486 7.02369C12.6702 7.0288 12.6921 7.03136 12.714 7.03136C12.7799 7.03136 12.8448 7.00833 12.8965 6.96512L14.2154 5.86255V11.1713L12.6409 12.4854ZM16.332 6.51334C16.2484 6.49771 16.162 6.51988 16.0969 6.57447L14.784 7.67135V3.48313C14.784 2.66004 15.4535 1.99048 16.2765 1.99048C17.0996 1.99048 17.7691 2.66004 17.7691 3.48313V6.78429L16.332 6.51334Z" fill="#736869"/>
</svg>
