<svg width="29" height="29" viewBox="0 0 29 29" fill="none" xmlns="http://www.w3.org/2000/svg">
<path d="M28.5045 18.9697L23.4589 22.483L22.4741 21.1591L28.9578 9.92948C29.0296 9.80498 29.0082 9.64769 28.9057 9.54714C28.803 9.44658 28.6454 9.42767 28.5224 9.50143L23.9585 12.24L22.6336 11.4267L28.9574 0.473222C29.0312 0.345248 29.0063 0.183546 28.8979 0.0836243C28.7888 -0.0162968 28.6255 -0.0270139 28.5045 0.0571468L23.4589 3.57046L20.8977 0.127438C20.8467 0.0587229 20.7698 0.013648 20.685 0.00293092C20.5989 -0.00904701 20.5141 0.0161697 20.4476 0.0697552L15.3292 4.18228L9.37322 0.334531C9.27141 0.268652 9.14059 0.267391 9.03752 0.330748L5.04124 2.7837L0.47758 0.0454841C0.354647 -0.0282747 0.19704 -0.00936222 0.0942803 0.0908742C-0.00816408 0.191426 -0.0295986 0.348715 0.0422701 0.473222L6.5259 11.7028L5.54117 13.0267L0.495232 9.51309C0.37419 9.42893 0.210909 9.43933 0.101845 9.53957C-0.00690322 9.63949 -0.0314899 9.80151 0.0422701 9.92917L6.3664 20.8827L5.04156 21.6959L0.47758 18.958C0.354647 18.8842 0.19704 18.9025 0.0942803 19.0037C-0.00816408 19.1043 -0.0295986 19.2616 0.0422701 19.3861L5.50177 28.8423C5.58877 28.9933 5.78073 29.0447 5.93235 28.9577C6.08334 28.8707 6.13472 28.6778 6.04772 28.5271L1.1969 20.1249L4.88111 22.3355C4.98198 22.3957 5.10807 22.3957 5.2083 22.3339L9.19828 19.8844L18.2515 25.734C18.3042 25.7681 18.3634 25.7845 18.4224 25.7845C18.5258 25.7845 18.6269 25.7337 18.6875 25.6404C18.782 25.4942 18.7401 25.2991 18.5938 25.2045L15.8871 23.4557L20.5876 19.6789L23.1354 23.1043C23.2366 23.2411 23.4286 23.272 23.5685 23.1749L27.7054 20.2945L22.9523 28.5268C22.8653 28.6778 22.917 28.8704 23.0677 28.9574C23.1175 28.9861 23.1717 28.9996 23.225 28.9996C23.334 28.9996 23.4399 28.9429 23.4983 28.842L28.9578 19.3857C29.0315 19.2581 29.0066 19.0958 28.8982 18.9961C28.7891 18.8962 28.6255 18.8855 28.5045 18.9697ZM1.1969 1.21239L4.88111 3.42295C4.98198 3.48347 5.10807 3.48284 5.2083 3.42137L9.19828 0.971882L18.2515 6.82153C18.3042 6.85557 18.3634 6.87196 18.4224 6.87196C18.5258 6.87196 18.6269 6.82121 18.6875 6.72759C18.782 6.58134 18.7401 6.38622 18.5938 6.29198L15.8871 4.5432L20.5876 0.766366L23.1354 4.19174C23.2366 4.32854 23.4286 4.36006 23.5685 4.26235L27.7054 1.38165L22.0965 11.0967L19.9628 9.78701C19.8553 9.72113 19.7185 9.72554 19.6151 9.79899L14.2206 13.6392L8.54043 9.51688C8.40047 9.41538 8.20504 9.44501 8.10228 9.5837L6.93599 11.1515L1.1969 1.21239ZM20.685 18.9155C20.5989 18.9057 20.5141 18.929 20.4476 18.9826L15.3292 23.0954L9.37354 19.2474C9.27172 19.1818 9.14122 19.1799 9.03783 19.2433L6.90415 20.553L1.29461 10.8379L5.43148 13.7186C5.57112 13.816 5.76276 13.7845 5.86458 13.648L7.15317 11.9156C7.15317 11.9156 7.15412 11.9144 7.15443 11.9137L8.42191 10.2097L13.6784 14.0244L11.2459 15.7558C11.1041 15.8567 11.071 16.0534 11.1721 16.1955C11.2336 16.2816 11.3307 16.3279 11.429 16.3279C11.4924 16.3279 11.5561 16.3087 11.6116 16.2693L14.4012 14.2835L19.8106 10.4329L23.792 12.877C23.892 12.9385 24.018 12.9391 24.1192 12.8786L27.8034 10.668L22.0647 20.6075L20.8984 19.0393C20.8473 18.9706 20.7704 18.9259 20.6856 18.9145L20.685 18.9155Z" fill="#736869"/>
</svg>
