<svg width="29" height="29" viewBox="0 0 29 29" fill="none" xmlns="http://www.w3.org/2000/svg">
<path d="M23.9552 28.9993C23.8868 28.9993 23.8184 28.9772 23.7613 28.9325L19.2027 25.3778L14.6602 28.1031C14.5417 28.1747 14.3904 28.1602 14.287 28.0672L9.76963 24.0019L5.25388 28.0672C5.15081 28.1602 4.99919 28.1744 4.88067 28.1031L0.153095 25.2662C0.00368415 25.1767 -0.0445435 24.9831 0.0449771 24.8337C0.134498 24.6843 0.327724 24.6361 0.47745 24.7256L5.0055 27.4424L9.55876 23.3431C9.67885 23.2353 9.86042 23.2353 9.98051 23.3431L14.5353 27.4424L19.0637 24.7256C19.1753 24.6585 19.3171 24.667 19.4199 24.7473L23.9338 28.2674L28.4659 23.9171C28.591 23.797 28.7909 23.8004 28.9116 23.9262C29.032 24.0517 29.0279 24.2512 28.9025 24.3719L24.1733 28.911C24.1128 28.9694 24.034 28.9987 23.9552 28.9987V28.9993Z" fill="#736869"/>
<path d="M5.75667 23.3263C5.74847 23.3263 5.73965 23.3263 5.73114 23.3254L2.22438 23.0417C2.08853 23.0306 1.97536 22.9335 1.94321 22.8008L1.1432 19.4659C1.11641 19.3539 1.15266 19.2361 1.23808 19.1588L3.50762 17.0979C3.61069 17.0037 3.76357 16.9898 3.88241 17.0617L7.28672 19.1226C7.4169 19.2014 7.47206 19.3615 7.41847 19.5037L6.05139 23.1224C6.00506 23.2459 5.88685 23.326 5.75635 23.326L5.75667 23.3263ZM2.50335 22.4314L5.54547 22.6776L6.73604 19.5261L3.75727 17.7224L1.79979 19.5002L2.50335 22.4314Z" fill="#736869"/>
<path d="M15.7943 23.7316C15.7644 23.7316 15.7345 23.7272 15.7048 23.7187L13.0744 22.9388C12.964 22.906 12.8805 22.8156 12.8559 22.7033L12.3358 20.3064C12.3062 20.1699 12.3699 20.0306 12.4922 19.9635L15.2818 18.4293C15.4151 18.3556 15.5816 18.3887 15.6774 18.5056L17.6377 20.9006C17.7266 21.0097 17.7332 21.1638 17.6535 21.2795L16.0544 23.5954C15.9945 23.6821 15.8965 23.7316 15.795 23.7316H15.7943ZM13.4321 22.3875L15.6645 23.0494L16.9988 21.1169L15.3549 19.1086L13.0012 20.4029L13.4321 22.3875Z" fill="#736869"/>
<path d="M23.5348 24.1768C23.4446 24.1768 23.356 24.138 23.2946 24.0655L21.0159 21.3852C20.9276 21.2815 20.9163 21.1324 20.9872 21.0164L22.7798 18.0928C22.8397 17.9948 22.9526 17.9355 23.0635 17.9424L26.1258 18.0896C26.2652 18.0963 26.3834 18.194 26.4168 18.3295L27.3665 22.1944C27.4028 22.3419 27.3287 22.4942 27.19 22.5566L23.6643 24.1487C23.6227 24.1676 23.5786 24.1768 23.5348 24.1768ZM21.6441 21.1513L23.6211 23.477L26.6913 22.0904L25.8604 18.7084L23.2192 18.5817L21.6441 21.1513Z" fill="#736869"/>
<path d="M8.04161 15.8451C7.91994 15.8451 7.80615 15.7745 7.75445 15.6595L6.16231 12.1338C6.10431 12.0058 6.13835 11.8548 6.24553 11.764L8.92579 9.485C9.02981 9.39674 9.17891 9.38571 9.29459 9.45632L12.2182 11.249C12.3165 11.3092 12.3739 11.4179 12.3686 11.533L12.221 14.595C12.2144 14.7343 12.1167 14.8528 11.9812 14.8859L8.11664 15.8357C8.09173 15.842 8.06652 15.8448 8.04161 15.8448V15.8451ZM6.83435 12.0906L8.22097 15.1611L11.6026 14.3302L11.7296 11.689L9.15999 10.1132L6.83435 12.0906Z" fill="#736869"/>
<path d="M15.1947 6.9892C15.1377 6.9892 15.0809 6.97375 15.0302 6.94286L12.691 5.50894C12.5926 5.44874 12.5353 5.33999 12.5406 5.22525L12.6585 2.77539C12.6651 2.63606 12.7629 2.51754 12.8984 2.48444L15.9903 1.72446C16.1366 1.68821 16.2901 1.7626 16.3525 1.90098L17.626 4.72153C17.684 4.84951 17.6499 5.0005 17.5428 5.09128L15.3987 6.91449C15.3404 6.9643 15.2675 6.9892 15.1947 6.9892ZM13.1796 5.0689L15.1648 6.28595L16.9542 4.7644L15.886 2.39902L13.2773 3.04017L13.1796 5.0689Z" fill="#736869"/>
<path d="M24.6727 7.56942C24.551 7.56942 24.4373 7.49881 24.3856 7.38407L22.7934 3.85838C22.7354 3.7304 22.7695 3.57941 22.8766 3.48863L25.5569 1.20961C25.6612 1.12135 25.81 1.11032 25.9257 1.18093L28.8493 2.97356C28.9476 3.03377 29.005 3.14252 28.9997 3.25757L28.8521 6.3199C28.8455 6.45922 28.7478 6.57775 28.6123 6.61084L24.7477 7.56059C24.7228 7.56689 24.6976 7.56973 24.6727 7.56973V7.56942ZM23.4655 3.81519L24.8521 6.88571L28.2337 6.0548L28.3607 3.41361L25.7911 1.83815L23.4655 3.81551V3.81519Z" fill="#736869"/>
<path d="M5.82745 7.90081C5.81926 7.90081 5.81043 7.90081 5.80192 7.89986L1.31359 7.53673C1.17773 7.5257 1.06457 7.42861 1.03242 7.29622L0.00892245 3.02693C-0.0178707 2.91503 0.0183789 2.79746 0.103802 2.71991L3.0085 0.0818698C3.11189 -0.0120646 3.26445 -0.0265645 3.38328 0.04562L7.7408 2.68398C7.87098 2.76278 7.92614 2.92291 7.87256 3.06508L6.12218 7.69718C6.07552 7.82043 5.95795 7.90081 5.82745 7.90081ZM1.59256 6.92647L5.61657 7.25209L7.19044 3.08746L3.25815 0.706628L0.665513 3.06129L1.59256 6.92647Z" fill="#736869"/>
<path d="M21.4209 16.3356C21.3837 16.3356 21.3462 16.329 21.3093 16.3155L16.9669 14.6744C16.8355 14.6246 16.7529 14.4941 16.7639 14.3542L17.1044 10.146C17.1154 10.0102 17.2128 9.89671 17.3452 9.86487L21.3471 8.90504C21.459 8.87856 21.5769 8.9145 21.6541 8.99961L24.1276 11.7231C24.2216 11.8265 24.2364 11.979 24.1639 12.0982L21.6904 16.1834C21.6318 16.2802 21.5284 16.3356 21.4209 16.3356ZM17.4117 14.1685L21.2869 15.633L23.5026 11.973L21.3128 9.56195L17.7146 10.425L17.4117 14.1685Z" fill="#736869"/>
</svg>
