<svg width="38" height="38" viewBox="0 0 38 38" fill="none" xmlns="http://www.w3.org/2000/svg">
<path d="M37.3507 24.8568L30.7392 29.4605L29.4489 27.7257L37.9446 13.011C38.0388 12.8479 38.0107 12.6418 37.8765 12.51C37.7418 12.3783 37.5353 12.3535 37.3742 12.4501L31.3939 16.0386L29.6579 14.9729L37.9442 0.620084C38.0409 0.452393 38.0082 0.240508 37.8662 0.109577C37.7233 -0.0213544 37.5093 -0.0353975 37.3507 0.074882L30.7392 4.67854L27.3832 0.166988C27.3163 0.0769472 27.2156 0.0178836 27.1044 0.00384051C26.9917 -0.0118547 26.8806 0.0211879 26.7934 0.0914033L20.0865 5.48023L12.2822 0.43835C12.1487 0.352027 11.9773 0.350374 11.8423 0.433394L6.60576 3.64761L0.625794 0.0595998C0.464709 -0.0370497 0.25819 -0.0122677 0.12354 0.119076C-0.0106977 0.250834 -0.0387844 0.456937 0.0553884 0.620084L8.55118 15.3348L7.26084 17.0695L0.648925 12.4654C0.490318 12.3552 0.276364 12.3688 0.133453 12.5001C-0.00904559 12.6311 -0.0412626 12.8434 0.0553884 13.0106L8.34218 27.3635L6.60618 28.4291L0.625794 24.8415C0.464709 24.7449 0.25819 24.7688 0.12354 24.9014C-0.0106977 25.0332 -0.0387844 25.2393 0.0553884 25.4024L7.20921 37.7934C7.32321 37.9912 7.57475 38.0586 7.77342 37.9446C7.97127 37.8306 8.03859 37.5778 7.9246 37.3804L1.56835 26.3706L6.39594 29.2672C6.52811 29.3461 6.69333 29.3461 6.82467 29.2651L12.0529 26.0554L23.9158 33.7205C23.9848 33.7651 24.0624 33.7866 24.1397 33.7866C24.2751 33.7866 24.4077 33.7201 24.487 33.5978C24.6109 33.4062 24.556 33.1505 24.3643 33.0266L20.8176 30.7351L26.9768 25.7861L30.3154 30.2745C30.448 30.4538 30.6995 30.4943 30.8829 30.3671L36.3036 26.5928L30.0754 37.3799C29.9614 37.5778 30.0292 37.8301 30.2266 37.9441C30.2919 37.9817 30.3629 37.9995 30.4327 37.9995C30.5756 37.9995 30.7144 37.9251 30.7908 37.793L37.9446 25.402C38.0413 25.2347 38.0087 25.022 37.8666 24.8915C37.7237 24.7606 37.5093 24.7465 37.3507 24.8568ZM1.56835 1.58864L6.39594 4.48524C6.52811 4.56454 6.69333 4.56371 6.82467 4.48317L12.0529 1.2735L23.9158 8.93855C23.9848 8.98316 24.0624 9.00464 24.1397 9.00464C24.2751 9.00464 24.4077 8.93814 24.487 8.81547C24.6109 8.62382 24.556 8.36815 24.3643 8.24466L20.8176 5.95316L26.9768 1.0042L30.3154 5.49262C30.448 5.67188 30.6995 5.71318 30.8829 5.58514L36.3036 1.81044L28.954 14.5405L26.1582 12.8244C26.0173 12.738 25.8381 12.7438 25.7026 12.8401L18.6339 17.872L11.1909 12.4704C11.0075 12.3374 10.7514 12.3762 10.6168 12.558L9.08854 14.6124L1.56835 1.58864ZM27.1044 24.7858C26.9917 24.773 26.8806 24.8035 26.7934 24.8737L20.0865 30.263L12.2826 25.2207C12.1492 25.1348 11.9782 25.1323 11.8427 25.2153L9.04682 26.9315L1.69639 14.2014L7.11711 17.9761C7.30008 18.1037 7.55121 18.0624 7.68462 17.8836L9.37312 15.6136C9.37312 15.6136 9.37436 15.6119 9.37477 15.6111L11.0356 13.3782L17.9234 18.3767L14.736 20.6455C14.5501 20.7777 14.5068 21.0354 14.6394 21.2217C14.7199 21.3345 14.8471 21.3952 14.976 21.3952C15.059 21.3952 15.1424 21.37 15.2151 21.3184L18.8705 18.7163L25.9587 13.6707L31.1758 16.8733C31.3067 16.9539 31.4719 16.9547 31.6045 16.8754L36.4321 13.9788L28.9123 27.0029L27.3841 24.9481C27.3172 24.858 27.2164 24.7994 27.1053 24.7845L27.1044 24.7858Z" fill="#736869"/>
</svg>
