<svg width="91" height="41" viewBox="0 0 91 41" fill="none" xmlns="http://www.w3.org/2000/svg">
<path d="M6.29631 3.15106C6.29631 4.93063 4.97584 6.27086 3.22344 6.27086C1.38465 6.27086 0 4.92816 0 3.15106C0 1.34187 1.35503 0.03125 3.22344 0.03125C5.00299 0.03125 6.29631 1.34187 6.29631 3.15106Z" fill="white"/>
<path d="M0.380371 40.4411H5.91649V12.2197L0.380371 13.5896V40.4411Z" fill="white"/>
<path d="M48.4109 12.7449C44.3014 12.7449 40.4757 15.7561 38.6295 19.2807C37.198 15.7068 33.7943 12.7449 29.7293 12.7449C26.1233 12.7449 22.6752 15.2625 20.6291 18.1626V12.2217L15.0955 13.5915V40.4431H20.6291V21.4725C22.0853 18.1898 25.1434 15.9906 28.2632 15.9906C31.4052 15.9906 33.7771 17.1038 33.7771 20.4334V40.4406H39.3082V21.628C39.3082 21.2084 43.8176 15.9882 46.9448 15.9882C50.0868 15.9882 52.4587 17.1013 52.4587 20.4309V40.4382H57.9899V21.6255C57.9899 16.1609 53.8705 12.7425 48.4084 12.7425L48.4109 12.7449Z" fill="white"/>
<path d="M90.9 40.4415L76.3476 23.2579L88.459 12.5903H85.4996L71.2089 25.2497V0L65.6777 1.36985V40.4415H71.2089V27.8142L72.4751 26.6665L84.4309 40.4415H90.9Z" fill="white"/>
</svg>
