<svg width="38" height="85" viewBox="0 0 38 85" fill="none" xmlns="http://www.w3.org/2000/svg">
<path d="M34.8047 0.5C35.0515 0.5 35.2831 0.535032 35.501 0.602539L35.7148 0.680664C35.9294 0.772378 36.124 0.889873 36.2988 1.03418L36.4668 1.1875L36.4678 1.18848C36.6298 1.35031 36.7658 1.53107 36.875 1.73145L36.9756 1.93945C37.0947 2.21745 37.1562 2.51851 37.1562 2.84668C37.1562 3.17488 37.0948 3.47589 36.9756 3.75391C36.8537 4.03827 36.6845 4.28779 36.4678 4.50488C36.3055 4.66684 36.1239 4.80288 35.9229 4.91211L35.7148 5.0127C35.4361 5.13181 35.1338 5.19336 34.8047 5.19336C34.5578 5.19333 34.3263 5.15838 34.1084 5.09082L33.8955 5.0127C33.6098 4.8906 33.359 4.72095 33.1426 4.50488H33.1416C32.9251 4.2879 32.7566 4.03809 32.6348 3.75391C32.5156 3.47589 32.4541 3.17488 32.4541 2.84668C32.4541 2.60059 32.4882 2.3696 32.5557 2.15234L32.6348 1.93945C32.7264 1.72562 32.8445 1.5313 32.9893 1.35645L33.1426 1.18848V1.1875C33.3045 1.02547 33.4863 0.890418 33.6875 0.78125L33.8955 0.680664C34.1742 0.561622 34.4757 0.500034 34.8047 0.5ZM23.874 0.892578L25.1367 4V4.84961H0.5V0.892578H23.874Z" fill="#736869" stroke="black"/>
<path d="M20.084 36.5341C20.6792 36.8638 21.2499 37.3111 21.7959 37.8818L22.0293 38.1337C22.5715 38.7437 23.052 39.4131 23.4707 40.1406L23.6465 40.456C24.0473 41.2 24.375 41.9835 24.6309 42.8085L24.7354 43.165H24.7363C25.0041 44.1131 25.1348 45.0373 25.1348 45.9374C25.1347 46.7013 24.9885 47.4166 24.6963 48.0888L24.5625 48.374C24.223 49.0446 23.7781 49.6434 23.2266 50.1718L22.9834 50.3945C22.4024 50.9011 21.7306 51.318 20.9639 51.6425L20.6289 51.7753C19.73 52.1126 18.77 52.2831 17.7451 52.2831H0.5V48.3017H17.0586C17.725 48.3017 18.3647 48.2029 18.9766 48.0048L19.2373 47.914H19.2383C19.8336 47.6895 20.3711 47.3918 20.8467 47.0195L21.0469 46.8554C21.5063 46.4607 21.8822 46.005 22.1758 45.4912L22.2969 45.2675C22.6117 44.6494 22.7686 43.9946 22.7686 43.3105C22.7685 42.6687 22.691 42.0204 22.5391 41.3662L22.4697 41.0849V41.0839L22.3066 40.5322C22.1311 39.9875 21.9154 39.4626 21.6562 38.9589C21.3554 38.3744 21.011 37.8332 20.623 37.3369L20.4541 37.1269L20.4531 37.1259L20.2783 36.9218C20.0712 36.6888 19.8561 36.4765 19.6338 36.2841L20.084 36.5341ZM23.8945 15.0263L25.1367 18.2031V19.0331H19.1504L20.0859 19.9003C20.5865 20.3642 21.0721 20.8742 21.5439 21.4306L22.0107 22.0019C22.472 22.5883 22.893 23.188 23.2734 23.8007L23.6406 24.4179C24.0501 25.139 24.3819 25.857 24.6377 26.5722L24.7422 26.8788H24.7432C25.0085 27.6864 25.1357 28.4435 25.1357 29.1523C25.1357 29.7432 25.043 30.3481 24.8555 30.9677L24.7695 31.2343C24.5548 31.858 24.2635 32.44 23.8955 32.9814L23.7334 33.2109C23.3436 33.7397 22.8937 34.2042 22.3828 34.6035L22.1602 34.7705C21.5704 35.1953 20.9303 35.4724 20.2324 35.6054L19.0381 35.832C19.0075 35.8118 18.9771 35.7909 18.9463 35.7714L18.8242 35.6943H0.5V31.7128H17.0586C17.7265 31.7128 18.3679 31.611 18.9814 31.4052L19.2432 31.3105C19.8372 31.0794 20.373 30.7777 20.8467 30.4062L21.0459 30.2421H21.0469C21.5077 29.8463 21.8843 29.3862 22.1777 28.8662L22.2979 28.6396C22.6114 28.015 22.7685 27.3577 22.7686 26.6738C22.7686 26.0705 22.6873 25.4539 22.5273 24.8281L22.4541 24.5585C22.2486 23.8491 21.975 23.1567 21.6328 22.4833H21.6318C21.3751 21.9777 21.0878 21.4975 20.7686 21.0439L20.4385 20.5996V20.5986L20.2656 20.3837C19.8602 19.8935 19.4342 19.4744 18.9824 19.1328L18.8486 19.0322H0.5V15.0263H23.8945Z" fill="#736869" stroke="black"/>
<path d="M14.6289 66.4464L24.6699 78.923V80.5802L16.3896 70.4074L16.0635 70.007L15.6738 70.3458L0.5 83.5382V78.2872L14.0928 66.5109L14.4385 66.2101L14.6289 66.4464ZM36.2354 61.6271L37.5 64.8058V65.6329H0.5V61.6271H36.2354Z" fill="#736869" stroke="black"/>
</svg>
