<svg width="40" height="90" viewBox="0 0 40 90" fill="none" xmlns="http://www.w3.org/2000/svg">
<path d="M25.4849 0.413382L26.9855 4.10745V5.63126H0V0.413382H25.4849ZM36.6368 0C37.0509 0 37.4392 0.0776873 37.8012 0.232349C38.1631 0.387011 38.483 0.602255 38.7585 0.87808C39.0341 1.15319 39.2504 1.47249 39.4053 1.83385C39.5602 2.1952 39.6381 2.58292 39.6381 2.99631C39.6381 3.40969 39.5602 3.79741 39.4053 4.15876C39.2504 4.52012 39.0341 4.83871 38.7585 5.11453C38.483 5.38964 38.1631 5.6056 37.8012 5.76026C37.4392 5.91492 37.0509 5.99261 36.6368 5.99261C36.2227 5.99261 35.8344 5.91492 35.4724 5.76026C35.1105 5.6056 34.7906 5.38964 34.5151 5.11453C34.2395 4.83871 34.0232 4.52012 33.8683 4.15876C33.7134 3.79741 33.6356 3.40969 33.6356 2.99631C33.6356 2.58292 33.7134 2.1952 33.8683 1.83385C34.0232 1.47249 34.2395 1.15319 34.5151 0.87808C34.7906 0.602255 35.1105 0.387011 35.4724 0.232349C35.8344 0.0776873 36.2227 0 36.6368 0Z" fill="#736869"/>
<path d="M26.9855 19.0633V20.5615H21.5006C22.2252 21.2329 22.9184 21.9905 23.5831 22.8344C24.2463 23.6775 24.8324 24.5478 25.3421 25.4429C25.8504 26.3381 26.2516 27.2333 26.5451 28.1292C26.8392 29.0244 26.9848 29.8768 26.9848 30.6865C26.9848 31.4612 26.8463 32.2495 26.5708 33.0499C26.2952 33.8503 25.9075 34.5908 25.4064 35.2714C24.9052 35.9514 24.3141 36.5372 23.6338 37.0276C22.952 37.5187 22.2074 37.8415 21.3957 37.9962C22.1717 38.426 22.8999 39.0247 23.5817 39.7916C24.262 40.557 24.8531 41.4059 25.3543 42.336C25.8554 43.2661 26.2509 44.2511 26.5443 45.2938C26.8385 46.3351 26.9841 47.3557 26.9841 48.355C26.9841 49.3542 26.7642 50.2879 26.3245 51.1574C25.8847 52.0262 25.2893 52.7881 24.539 53.4431C23.7887 54.0974 22.9092 54.6141 21.8997 54.9933C20.891 55.3718 19.8172 55.5614 18.6786 55.5614H0V50.3178H17.9561C18.6971 50.3178 19.3996 50.1924 20.065 49.9429C20.7282 49.6928 21.3107 49.3528 21.8112 48.9223C22.3123 48.4918 22.7078 47.9879 23.0012 47.4113C23.2954 46.834 23.441 46.2268 23.441 45.5903C23.441 44.8669 23.3411 44.1306 23.1433 43.3816C22.9434 42.6325 22.6736 41.9219 22.328 41.2505C21.9825 40.5791 21.5813 39.9676 21.1251 39.4167C20.6668 38.865 20.1806 38.426 19.663 38.0995H0V32.856H17.9561C18.6971 32.856 19.3996 32.727 20.065 32.4683C20.7282 32.2103 21.3107 31.8646 21.8112 31.4348C22.3123 31.0043 22.7078 30.4955 23.0012 29.911C23.2954 29.3252 23.441 28.7136 23.441 28.0772C23.441 27.4058 23.3375 26.7116 23.1305 25.9981C22.9234 25.2833 22.6479 24.5855 22.3023 23.9056C21.9568 23.2249 21.5556 22.592 21.0994 22.0069C20.6411 21.421 20.1642 20.9385 19.6638 20.56H0V15.2908H25.5113L26.9863 19.0619L26.9855 19.0633Z" fill="#736869"/>
<path d="M15.8087 69.6135L26.4944 82.8916V86.3013L16.8438 74.4451L0 89.0909V82.1682L14.4894 69.6135H0V64.3443H38.4994L40 68.1153V69.6135H15.8087Z" fill="#736869"/>
</svg>
